<svg width="800" height="520" viewBox="0 0 800 520" fill="none" xmlns="http://www.w3.org/2000/svg">
  <defs>
    <linearGradient id="grad-3" x1="0" y1="0" x2="1" y2="1">
      <stop offset="0%" stop-color="#111827" />
      <stop offset="60%" stop-color="#2563eb" />
      <stop offset="100%" stop-color="#38bdf8" />
    </linearGradient>
    <linearGradient id="glass-3" x1="0" y1="0" x2="0" y2="1">
      <stop offset="0%" stop-color="rgba(255,255,255,0.12)" />
      <stop offset="100%" stop-color="rgba(255,255,255,0.02)" />
    </linearGradient>
  </defs>
  <rect width="800" height="520" rx="36" fill="url(#grad-3)" />
  <rect x="48" y="70" width="704" height="360" rx="28" fill="rgba(255,255,255,0.06)" stroke="rgba(255,255,255,0.2)" stroke-width="2" />
  <g opacity="0.55">
    <path d="M140 290L400 140L660 290L400 420L140 290Z" fill="rgba(255,255,255,0.08)" />
    <path d="M400 140L660 290L400 420L140 290L400 140Z" stroke="rgba(255,255,255,0.35)" stroke-width="2" />
    <path d="M400 140V420" stroke="rgba(255,255,255,0.22)" stroke-width="2" />
    <path d="M200 320L400 200L600 320" stroke="rgba(255,255,255,0.28)" stroke-width="2" />
  </g>
  <rect x="110" y="120" width="580" height="60" rx="18" fill="rgba(255,255,255,0.12)" />
  <rect x="110" y="200" width="420" height="40" rx="14" fill="rgba(255,255,255,0.08)" />
  <rect x="110" y="260" width="340" height="36" rx="12" fill="rgba(255,255,255,0.08)" />
  <text x="120" y="165" font-family="Space Grotesk, Arial, sans-serif" font-size="28" fill="rgba(255,255,255,0.85)" letter-spacing="2">3D PROMPTER MOCKUP</text>
  <text x="120" y="228" font-family="Space Grotesk, Arial, sans-serif" font-size="16" fill="rgba(255,255,255,0.75)" letter-spacing="3">CRYSTAL SERIES</text>
  <rect x="110" y="340" width="180" height="54" rx="18" fill="rgba(255,255,255,0.16)" stroke="rgba(255,255,255,0.3)" stroke-width="1.5" />
  <text x="136" y="374" font-family="Space Grotesk, Arial, sans-serif" font-size="16" fill="#38bdf8" letter-spacing="2">LIVE READY</text>
  <rect x="0" y="0" width="800" height="520" rx="36" fill="url(#glass-3)" />
</svg>
